<svg xmlns="http://www.w3.org/2000/svg" xmlns:xlink="http://www.w3.org/1999/xlink" width="12" height="13" viewBox="0 0 12 13">
  <defs>
    <linearGradient id="linear-gradient" x1="0.5" y1="0.57" x2="0.5" y2="1" gradientUnits="objectBoundingBox">
      <stop offset="0" stop-color="#fff"/>
      <stop offset="1" stop-color="#b2b2b2" stop-opacity="0.847"/>
    </linearGradient>
  </defs>
  <g id="ico" transform="translate(-1361 -340)">
    <g id="사각형_4137" data-name="사각형 4137" transform="translate(1363 340)" fill="#fff" stroke="#707070" stroke-width="1">
      <path d="M1,0H6A2,2,0,0,1,8,2V6A1,1,0,0,1,7,7H1A1,1,0,0,1,0,6V1A1,1,0,0,1,1,0Z" stroke="none"/>
      <path d="M1,.5H6A1.5,1.5,0,0,1,7.5,2V6a.5.5,0,0,1-.5.5H1A.5.5,0,0,1,.5,6V1A.5.5,0,0,1,1,.5Z" fill="none"/>
    </g>
    <g id="사각형_4138" data-name="사각형 4138" transform="translate(1361 346)" stroke="#606060" stroke-width="1" fill="url(#linear-gradient)">
      <rect width="12" height="7" rx="2" stroke="none"/>
      <rect x="0.5" y="0.5" width="11" height="6" rx="1.5" fill="none"/>
    </g>
    <g id="사각형_4139" data-name="사각형 4139" transform="translate(1365 343)" fill="#fff" stroke="#707070" stroke-width="1">
      <rect width="4" height="1" stroke="none"/>
      <rect x="0.5" y="0.5" width="3" fill="none"/>
    </g>
  </g>
</svg>
