<svg xmlns="http://www.w3.org/2000/svg" width="96" height="42" viewBox="0 0 96 42">
    <path transform="translate(67.055 17.238)" style="fill:#313333" d="M0 0h4.331v24.308H0z"/>
    <path data-name="패스 83223" d="m0 26.507.015 3.743h4.808l.012 7.078h4.332l-.012-7.078h4.215v7.078h4.247V30.25h3.236l1.312-2.995a.535.535 0 0 0-.49-.749z" transform="translate(0 4.405)" style="fill:#313333"/>
    <path data-name="패스 83224" d="m10.938 21.976.28-.227 8.122 5.173 2.035-3.3L13.14 18.7l.043-.328a6.773 6.773 0 0 0 .066-.995V14.8h-4.66v1.771a2.76 2.76 0 0 1-.213 1.387A3.972 3.972 0 0 1 7.3 19.129 55.047 55.047 0 0 1 .454 23.3l2.68 3.746a63.478 63.478 0 0 0 7.8-5.069" transform="translate(.076 2.461)" style="fill:#313333"/>
    <path data-name="패스 83225" d="M34.486 19.494h2.244l.007-1.584-.007-.252.006-1.8H21.721v3.637h1.95V30.9h-1.887v3.63h14.359l1.44-2.871a.527.527 0 0 0-.471-.764h-2.626zM30.529 30.9H27.8l-.023-11.4h2.748z" transform="translate(3.609 2.634)" style="fill:#313333"/>
    <path data-name="패스 83226" d="m37.215 14.78.009 8.334H34.1v3.93h3.123v12.045h4.33l-.008-24.309z" transform="translate(5.667 2.457)" style="fill:#313333"/>
    <path data-name="패스 83227" d="M58.78 30.942H48.2a.294.294 0 0 1-.294-.294v-3.626a.294.294 0 0 1 .294-.3h6.5a1.472 1.472 0 0 0 1.167-.451 1.769 1.769 0 0 0 .4-1.2l-.006-9.058a.3.3 0 0 0-.3-.294H43.814a.293.293 0 0 0-.294.3l.013 3.156a.294.294 0 0 0 .294.293H51.6a.293.293 0 0 1 .294.293L51.9 22.9a.294.294 0 0 1-.294.294h-7.8a.3.3 0 0 0-.3.294l-.01 8.973a2.384 2.384 0 0 0 .063.59 2.068 2.068 0 0 0 .727 1.176 2.009 2.009 0 0 0 1.3.458h12.133l1.6-2.821a.619.619 0 0 0-.539-.925" transform="translate(7.231 2.613)" style="fill:#313333"/>
    <path data-name="패스 83228" d="M82.327 27.873V14.78h-4.221v8.342l.006-.01-.012 4.761z" transform="translate(12.979 2.457)" style="fill:#313333"/>
    <path data-name="패스 83229" d="M68.756 23.2v-4.369h8.6l-.007-3.478H64.475v8.769a3.408 3.408 0 0 0 .085.688 2.419 2.419 0 0 0 .827 1.366 2.326 2.326 0 0 0 1.5.506h11.052l1.574-2.739a.492.492 0 0 0-.426-.737z" transform="translate(10.715 2.551)" style="fill:#313333"/>
    <path data-name="패스 83230" d="M84.268 30.3a3.906 3.906 0 0 0-1.606-2.42 5.98 5.98 0 0 0-3.427-.866H71.4a6.126 6.126 0 0 0-3.813.947 3.521 3.521 0 0 0-1.1 2.975l.049 1.948a6.857 6.857 0 0 0 .163 1.368 3.894 3.894 0 0 0 1.592 2.41 5.973 5.973 0 0 0 3.411.852h7.834a6.078 6.078 0 0 0 3.832-.961 3.544 3.544 0 0 0 1.108-2.966l-.052-1.944a6.8 6.8 0 0 0-.156-1.343m-4.126 3.63h-9.3v-3.336h9.3z" transform="translate(11.049 4.489)" style="fill:#313333"/>
    <path data-name="패스 83231" d="m29.7 0 4.6 12.225h3.5L33.292 0z" transform="translate(4.935)" style="fill:#fc861d"/>
    <path data-name="패스 83232" d="m41.753 0-4.605 12.225h-3.5L38.159 0z" transform="translate(5.593)" style="fill:#e51f3f"/>
    <path data-name="패스 83233" d="M.432 11.443V9.9h2.613c.166 0 .33-.007.5-.022a1.87 1.87 0 0 0 .455-.1 1.014 1.014 0 0 0 .338-.194.415.415 0 0 0 .133-.327.613.613 0 0 0-.4-.555 3.92 3.92 0 0 0-1.058-.317 7.811 7.811 0 0 1-.934-.224 3.58 3.58 0 0 1-.885-.4 2.185 2.185 0 0 1-.654-.629 1.678 1.678 0 0 1-.257-.948 1.955 1.955 0 0 1 .248-1.03 1.729 1.729 0 0 1 .711-.644 3.66 3.66 0 0 1 1.116-.334 9.928 9.928 0 0 1 1.462-.1H6.1v1.486H3.888a4.815 4.815 0 0 0-1.2.127c-.325.083-.487.259-.487.525a.535.535 0 0 0 .148.378 1.168 1.168 0 0 0 .4.258 3.3 3.3 0 0 0 .578.18c.22.049.445.093.678.132a5.591 5.591 0 0 1 .967.259 3.063 3.063 0 0 1 .786.423 1.913 1.913 0 0 1 .52.592 1.584 1.584 0 0 1 .191.785 1.781 1.781 0 0 1-.289 1.03 2.262 2.262 0 0 1-.762.689 3.572 3.572 0 0 1-1.074.385 6.442 6.442 0 0 1-1.248.119z" transform="translate(.047 .679)" style="fill:#313333"/>
    <path data-name="패스 83234" d="M10.367 9.936h1.155V4.144h1.733V11.4h-3.02c-2.289 0-3.795-.858-3.795-3.867V4.144h1.718v3.287c0 1.795.815 2.5 2.209 2.5" transform="translate(1.071 .688)" style="fill:#313333"/>
    <path data-name="패스 83235" d="m16.658 11.226-.889-1.156a.268.268 0 0 1-.059-.282c.04-.079.143-.118.311-.118h1.259a1.711 1.711 0 0 0 .711-.155 1.762 1.762 0 0 0 .585-.43 2.155 2.155 0 0 0 .392-.645 2.216 2.216 0 0 0 .008-1.578 1.819 1.819 0 0 0-1.726-1.177h-2.117v8.346H13.31V4.145h4.1a3.853 3.853 0 0 1 1.348.236 3.157 3.157 0 0 1 1.1.689 3.31 3.31 0 0 1 .742 1.1 3.766 3.766 0 0 1 .274 1.466 3.565 3.565 0 0 1-.289 1.445 3.612 3.612 0 0 1-.771 1.134 3.538 3.538 0 0 1-1.118.741 3.371 3.371 0 0 1-1.319.267z" transform="translate(2.211 .688)" style="fill:#313333"/>
    <path data-name="패스 83236" d="M26.429 9.991c.229 0 .356.045.385.14s-.014.215-.133.364l-.741.946h-1.334a5.211 5.211 0 0 1-1.881-.3 3.5 3.5 0 0 1-1.289-.83 3.351 3.351 0 0 1-.748-1.215 4.32 4.32 0 0 1-.245-1.459 4.5 4.5 0 0 1 .222-1.415 3.439 3.439 0 0 1 .667-1.186 3.233 3.233 0 0 1 1.1-.814 3.885 3.885 0 0 1 2.911-.044 2.945 2.945 0 0 1 1.045.727 3.172 3.172 0 0 1 .659 1.132 4.493 4.493 0 0 1 .23 1.466 2.077 2.077 0 0 1-.073.429 1.013 1.013 0 0 1-.194.372 1.027 1.027 0 0 1-.341.267 1.179 1.179 0 0 1-.519.1h-3.884a1.939 1.939 0 0 0 .682.948 2.35 2.35 0 0 0 1.437.372zM23.94 5.413a1.728 1.728 0 0 0-.742.147 1.577 1.577 0 0 0-.533.408 1.963 1.963 0 0 0-.348.6 3.154 3.154 0 0 0-.171.725h3.1a.263.263 0 0 0 .222-.1.35.35 0 0 0 .073-.216 1.469 1.469 0 0 0-.118-.577 1.714 1.714 0 0 0-.325-.5 1.561 1.561 0 0 0-1.156-.489" transform="translate(3.397 .651)" style="fill:#313333"/>
    <path data-name="패스 83237" d="M26.942 7.151a3.17 3.17 0 0 1 .7-2.28 3.146 3.146 0 0 1 2.334-.727h.485v1.482H30.1a1.373 1.373 0 0 0-1.11.379 1.765 1.765 0 0 0-.313 1.146V11.4H27a.052.052 0 0 1-.059-.058z" transform="translate(4.477 .688)" style="fill:#313333"/>
    <path style="fill:none" d="M0 0h96v42H0z"/>
</svg>
