<svg xmlns="http://www.w3.org/2000/svg" width="160" height="70" viewBox="0 0 160 70">
    <path transform="translate(111.814 28.552)" style="fill:#313333" d="M0 0h7.21v40.261H0z"/>
    <path data-name="패스 83223" d="m0 26.507.025 6.2h8l.024 11.723h7.212l-.021-11.723h7.018V44.43h7.07V32.707h5.387l2.184-4.96a.886.886 0 0 0-.815-1.24z" transform="translate(.19 24.693)" style="fill:#313333"/>
    <path data-name="패스 83224" d="m17.906 26.683.466-.377 13.521 8.568 3.388-5.468-13.71-8.155.072-.543a11.163 11.163 0 0 0 .111-1.648V14.8H14v2.934a4.55 4.55 0 0 1-.355 2.3 6.591 6.591 0 0 1-1.792 1.933 91.718 91.718 0 0 1-11.4 6.907l4.461 6.2a105.723 105.723 0 0 0 12.991-8.4" transform="translate(.618 13.792)" style="fill:#313333"/>
    <path data-name="패스 83225" d="M42.973 21.882h3.735l.012-2.623-.012-.417.01-2.986H21.724l-.008 2.621.008.421-.008 2.984h3.246v18.883h-3.133v6.021h23.9l2.4-4.755a.874.874 0 0 0-.784-1.265h-4.372zm-6.587 18.883h-4.534l-.039-18.883h4.574z" transform="translate(20.632 14.77)" style="fill:#313333"/>
    <path data-name="패스 83226" d="m39.287 14.78.016 13.8H34.1v6.509h5.2v19.954h7.2V14.78z" transform="translate(32.286 13.77)" style="fill:#313333"/>
    <path data-name="패스 83227" d="M68.933 40.934H51.321a.488.488 0 0 1-.489-.487V34.44a.489.489 0 0 1 .489-.489h10.827a2.456 2.456 0 0 0 1.943-.748 2.92 2.92 0 0 0 .662-2l-.01-15a.49.49 0 0 0-.491-.487H44.02a.486.486 0 0 0-.489.489l.021 5.227a.488.488 0 0 0 .489.485h12.941a.487.487 0 0 1 .489.485l.014 5.215a.488.488 0 0 1-.489.487H44.014a.49.49 0 0 0-.491.487l-.017 14.861a3.929 3.929 0 0 0 .1.977 3.423 3.423 0 0 0 1.209 1.947 3.355 3.355 0 0 0 2.172.759h20.179l2.663-4.672a1.026 1.026 0 0 0-.9-1.532" transform="translate(41.142 14.644)" style="fill:#313333"/>
    <path data-name="패스 83228" d="m85.133 36.466.008-21.686h-7.033V28.6l.01-.017-.018 7.883z" transform="translate(73.708 13.77)" style="fill:#313333"/>
    <path data-name="패스 83229" d="M71.6 28.358v-7.245h14.324l-.012-5.76H64.475l.008 14.523a5.617 5.617 0 0 0 .142 1.14A4 4 0 0 0 66 33.278a3.884 3.884 0 0 0 2.5.838h18.387l2.621-4.537a.814.814 0 0 0-.709-1.221z" transform="translate(60.881 14.301)" style="fill:#313333"/>
    <path data-name="패스 83230" d="M96.087 32.454a6.467 6.467 0 0 0-2.673-4.008 9.993 9.993 0 0 0-5.706-1.435H74.665c-2.916 0-5.053.529-6.348 1.568-1.264 1.022-1.879 2.681-1.829 4.927l.082 3.226A11.3 11.3 0 0 0 66.842 39a6.448 6.448 0 0 0 2.65 3.993A9.982 9.982 0 0 0 75.17 44.4h13.042c2.945 0 5.09-.537 6.379-1.592 1.266-1.035 1.887-2.691 1.844-4.912l-.087-3.22a11.213 11.213 0 0 0-.26-2.225m-6.868 6.013H73.745v-5.519h15.474z" transform="translate(62.772 25.162)" style="fill:#313333"/>
    <path data-name="패스 83231" d="m29.7 0 7.664 20.249h5.83L35.681 0z" transform="translate(28.145)" style="fill:#fc861d"/>
    <path data-name="패스 83232" d="m47.14 0-7.666 20.249h-5.826L41.157 0z" transform="translate(31.864)" style="fill:#e51f3f"/>
    <path data-name="패스 83233" d="M.531 16.275v-2.552H4.88c.276 0 .549-.012.825-.037a3.126 3.126 0 0 0 .757-.158 1.691 1.691 0 0 0 .563-.321.686.686 0 0 0 .221-.541 1.016 1.016 0 0 0-.66-.919 6.55 6.55 0 0 0-1.761-.525 13.058 13.058 0 0 1-1.555-.371 5.974 5.974 0 0 1-1.47-.66A3.628 3.628 0 0 1 .71 9.134a2.768 2.768 0 0 1-.427-1.57A3.225 3.225 0 0 1 .7 5.858a2.873 2.873 0 0 1 1.181-1.066 6.115 6.115 0 0 1 1.858-.552 16.609 16.609 0 0 1 2.434-.158h3.8v2.452H6.284a8.054 8.054 0 0 0-2 .211c-.542.137-.811.429-.811.869a.884.884 0 0 0 .247.626 1.945 1.945 0 0 0 .662.427 5.515 5.515 0 0 0 .963.3c.367.081.742.155 1.128.218a9.344 9.344 0 0 1 1.609.429 5.108 5.108 0 0 1 1.308.7 3.173 3.173 0 0 1 .866.981 2.612 2.612 0 0 1 .318 1.3A2.939 2.939 0 0 1 10.1 14.3a3.759 3.759 0 0 1-1.268 1.142 5.966 5.966 0 0 1-1.788.637 10.775 10.775 0 0 1-2.077.2z" transform="translate(.456 3.802)" style="fill:#313333"/>
    <path data-name="패스 83234" d="M12.977 13.738H14.9V4.144h2.885v12.022h-5.029c-3.811 0-6.317-1.422-6.317-6.405V4.144H9.3v5.445c0 2.973 1.357 4.149 3.677 4.149" transform="translate(6.252 3.86)" style="fill:#313333"/>
    <path data-name="패스 83235" d="M18.883 15.873 17.4 13.959a.441.441 0 0 1-.1-.467c.066-.131.239-.2.518-.2h2.095a2.86 2.86 0 0 0 1.187-.252 2.932 2.932 0 0 0 .975-.713 3.566 3.566 0 0 0 .652-1.068 3.654 3.654 0 0 0 .014-2.613A3.03 3.03 0 0 0 19.87 6.7h-3.526v13.821H13.31V4.145h6.831a6.443 6.443 0 0 1 2.244.39 5.259 5.259 0 0 1 1.836 1.142 5.481 5.481 0 0 1 1.235 1.829 6.21 6.21 0 0 1 .456 2.428 5.879 5.879 0 0 1-.481 2.393 5.982 5.982 0 0 1-1.283 1.873 5.891 5.891 0 0 1-1.862 1.227 5.636 5.636 0 0 1-2.2.442z" transform="translate(12.717 3.861)" style="fill:#313333"/>
    <path data-name="패스 83236" d="M30.407 13.979c.38 0 .592.075.641.232s-.023.355-.221.6l-1.234 1.569h-2.22a8.715 8.715 0 0 1-3.131-.5A5.83 5.83 0 0 1 22.1 14.5a5.545 5.545 0 0 1-1.244-2.013 7.122 7.122 0 0 1-.408-2.416 7.41 7.41 0 0 1 .369-2.343 5.688 5.688 0 0 1 1.11-1.964 5.379 5.379 0 0 1 1.821-1.344 6.5 6.5 0 0 1 4.846-.073 4.9 4.9 0 0 1 1.739 1.2 5.248 5.248 0 0 1 1.1 1.876 7.408 7.408 0 0 1 .382 2.428 3.424 3.424 0 0 1-.122.711 1.676 1.676 0 0 1-.322.616 1.709 1.709 0 0 1-.567.442 1.97 1.97 0 0 1-.864.17h-6.464a3.213 3.213 0 0 0 1.136 1.57 3.927 3.927 0 0 0 2.388.619zM26.264 6.4a2.889 2.889 0 0 0-1.235.243 2.624 2.624 0 0 0-.887.676 3.247 3.247 0 0 0-.579.995 5.2 5.2 0 0 0-.285 1.2h5.156a.439.439 0 0 0 .369-.158.578.578 0 0 0 .123-.356 2.422 2.422 0 0 0-.2-.956 2.837 2.837 0 0 0-.542-.834 2.6 2.6 0 0 0-1.92-.81" transform="translate(19.433 3.648)" style="fill:#313333"/>
    <path data-name="패스 83237" d="M26.942 9.125a5.234 5.234 0 0 1 1.173-3.776A5.254 5.254 0 0 1 32 4.145h.808V6.6H32.2a2.292 2.292 0 0 0-1.848.628 2.913 2.913 0 0 0-.52 1.9v7.042h-2.791a.087.087 0 0 1-.1-.1z" transform="translate(25.55 3.861)" style="fill:#313333"/>
    <path style="fill:none" d="M0 0h160v70H0z"/>
</svg>
