<svg xmlns="http://www.w3.org/2000/svg" width="24" height="24" viewBox="0 0 24 24">
    <g data-name="그룹 36072">
        <path data-name="패스 14687" d="M19.334 23.3H5.666A2.236 2.236 0 0 1 3.5 21v-9.356a2.36 2.36 0 0 1 .779-1.767l6.834-6.043a2.073 2.073 0 0 1 2.774 0l6.834 6.043a2.36 2.36 0 0 1 .779 1.767V21a2.236 2.236 0 0 1-2.166 2.3z" transform="translate(-.5 -1.301)" style="stroke:#424242;stroke-miterlimit:10;stroke-width:1.5px;fill:none"/>
        <path data-name="사각형 5732" d="M2 0h2a2 2 0 0 1 2 2v6H0V2a2 2 0 0 1 2-2z" transform="translate(9 14.001)" style="stroke:#424242;stroke-miterlimit:10;stroke-width:1.5px;fill:none"/>
    </g>
    <path style="opacity:.3;fill:none" d="M0 0h24v24H0z"/>
</svg>
