<svg xmlns="http://www.w3.org/2000/svg" width="220" height="70" viewBox="0 0 220 70">
    <defs>
        <clipPath id="czaytka4ya">
            <path style="fill:#d65858;opacity:.338" d="M0 0h220v70H0z"/>
        </clipPath>
    </defs>
    <g style="clip-path:url(#czaytka4ya)">
        <path d="M70.758 0 92.3 57.2h16.377L87.575 0z" transform="translate(89.736)" style="fill:#fc861d"/>
        <path d="m101.361 0-21.1 57.2h16.373L118.18 0z" transform="translate(101.785)" style="fill:#e51f3f"/>
        <g>
            <path d="M.7 44.263v-7.208h12.22q1.157 0 2.32-.1a8.5 8.5 0 0 0 2.125-.449 4.681 4.681 0 0 0 1.585-.9 1.934 1.934 0 0 0 .619-1.522 2.87 2.87 0 0 0-1.858-2.6 18.56 18.56 0 0 0-4.949-1.49 34.744 34.744 0 0 1-4.369-1.039 16.769 16.769 0 0 1-4.142-1.871A10.186 10.186 0 0 1 1.2 24.092 7.806 7.806 0 0 1 0 19.66a9.149 9.149 0 0 1 1.161-4.82 8.109 8.109 0 0 1 3.325-3.014 16.882 16.882 0 0 1 5.221-1.558 47.335 47.335 0 0 1 6.845-.451h10.676v6.932H16.864a22.694 22.694 0 0 0-5.609.59q-2.283.589-2.282 2.459a2.466 2.466 0 0 0 .7 1.767 5.392 5.392 0 0 0 1.858 1.214 16.1 16.1 0 0 0 2.706.835q1.545.344 3.171.621a25.071 25.071 0 0 1 4.525 1.213 14.157 14.157 0 0 1 3.667 1.974 9.023 9.023 0 0 1 2.436 2.772 7.429 7.429 0 0 1 .891 3.672 8.332 8.332 0 0 1-1.354 4.818 10.538 10.538 0 0 1-3.559 3.223 16.637 16.637 0 0 1-5.029 1.8 30.232 30.232 0 0 1-5.838.553z" transform="translate(0 12.449)" style="fill:#313333"/>
            <path d="M33.184 37.069h5.4V9.968h8.109V43.93H32.56c-10.708 0-17.751-4.019-17.751-18.1V9.968h8.041v15.381c0 8.395 3.817 11.72 10.334 11.72" transform="translate(18.781 12.641)" style="fill:#313333"/>
            <path d="m47 43.1-4.158-5.407a1.25 1.25 0 0 1-.279-1.318c.186-.37.669-.553 1.456-.553h5.891a7.928 7.928 0 0 0 3.327-.728 8.149 8.149 0 0 0 2.738-2.01 10.123 10.123 0 0 0 1.837-3.017 10.391 10.391 0 0 0 .034-7.379 8.534 8.534 0 0 0-8.075-5.512h-9.91v39.057h-8.526V9.968h19.2a17.989 17.989 0 0 1 6.308 1.109A14.685 14.685 0 0 1 62 14.3a15.4 15.4 0 0 1 3.468 5.165 17.542 17.542 0 0 1 1.282 6.861 16.66 16.66 0 0 1-1.35 6.757 16.88 16.88 0 0 1-3.6 5.3 16.461 16.461 0 0 1-5.233 3.466A15.864 15.864 0 0 1 50.4 43.1z" transform="translate(39.74 12.641)" style="fill:#313333"/>
            <path d="M76.5 37.839c1.066 0 1.665.22 1.8.656s-.068 1.007-.624 1.7l-3.464 4.432h-6.243a24.361 24.361 0 0 1-8.8-1.42 16.305 16.305 0 0 1-6.031-3.881 15.717 15.717 0 0 1-3.5-5.684 20.269 20.269 0 0 1-1.138-6.824 20.994 20.994 0 0 1 1.035-6.618 16.005 16.005 0 0 1 3.119-5.544 15.209 15.209 0 0 1 5.128-3.813 18.265 18.265 0 0 1 13.618-.209 13.816 13.816 0 0 1 4.886 3.4 14.738 14.738 0 0 1 3.085 5.3 20.949 20.949 0 0 1 1.077 6.861A9.773 9.773 0 0 1 80.1 28.2a4.707 4.707 0 0 1-.905 1.735 4.783 4.783 0 0 1-1.59 1.248 5.44 5.44 0 0 1-2.429.483H57.02a9.056 9.056 0 0 0 3.189 4.434q2.286 1.732 6.721 1.735zM64.854 16.42a8 8 0 0 0-3.468.694 7.457 7.457 0 0 0-2.5 1.9 9.106 9.106 0 0 0-1.629 2.81 14.912 14.912 0 0 0-.8 3.4h14.497a1.225 1.225 0 0 0 1.034-.451 1.582 1.582 0 0 0 .347-1 6.837 6.837 0 0 0-.551-2.7 8.009 8.009 0 0 0-1.522-2.357 7.306 7.306 0 0 0-5.407-2.289" transform="translate(61.504 11.943)" style="fill:#313333"/>
            <path d="M64.129 24.039q0-7.278 3.291-10.674t10.919-3.4h2.273V16.9h-1.719q-3.743 0-5.2 1.767a8.353 8.353 0 0 0-1.456 5.373v19.891h-7.83a.245.245 0 0 1-.279-.277z" transform="translate(81.33 12.643)" style="fill:#313333"/>
        </g>
    </g>
</svg>
