<svg xmlns="http://www.w3.org/2000/svg" xmlns:xlink="http://www.w3.org/1999/xlink" width="270" height="74" viewBox="0 0 270 74">
    <defs>
        <linearGradient id="u3fon7zq3a" x1="1" y1="1" x2=".476" y2="1" gradientUnits="objectBoundingBox">
            <stop offset="0" stop-color="#763df4"/>
            <stop offset="1" stop-color="#dedede"/>
        </linearGradient>
        <linearGradient id="rzli8n3h1b" x1="0" x2=".524" xlink:href="#u3fon7zq3a"/>
        <clipPath id="mz4grq1sqc">
            <path style="fill:none" d="M0 0h20v8H0z"/>
        </clipPath>
    </defs>
    <g>
        <rect data-name="line 1 gra 2" width="50" height="2" rx="1" transform="translate(56 27)" style="fill:url(#u3fon7zq3a)"/>
        <rect data-name="line 2 gra 2" width="50" height="2" rx="1" transform="translate(164 27)" style="fill:url(#rzli8n3h1b)"/>
        <g transform="translate(-158)">
            <circle cx="27" cy="27" r="27" transform="translate(374)" style="fill:#f4f4f4"/>
            <g data-name="다각형 76" style="stroke-linejoin:round;stroke-linecap:round;fill:none">
                <path d="M10.31 4.006a2 2 0 0 1 3.641 0l9.025 19.854a2 2 0 0 1-1.821 2.828H3.106a2 2 0 0 1-1.821-2.828z" style="stroke:none" transform="rotate(-135 208.054 -55.6)"/>
                <path d="M12.13 4.833 3.107 24.687h18.05L12.13 4.833m0-2c.732 0 1.465.391 1.82 1.173l9.025 19.854a2 2 0 0 1-1.82 2.827H3.105a2 2 0 0 1-1.82-2.827L10.31 4.006a1.974 1.974 0 0 1 1.82-1.173z" style="fill:#bcbcbc;stroke:none" transform="rotate(-135 208.054 -55.6)"/>
            </g>
            <path d="M7083.751 4114.955v3.843" transform="translate(-6680.511 -4101.426)" style="stroke-width:2px;stroke:#bcbcbc;stroke-linecap:round;fill:none"/>
            <path data-name="line" d="M0 0v3.843" transform="rotate(70 193 307.948)" style="stroke-width:2px;stroke:#bcbcbc;stroke-linecap:round;fill:none"/>
            <path data-name="line" d="M0 0v3.843" transform="rotate(135.97 201.93 98.961)" style="stroke-width:2px;stroke:#bcbcbc;stroke-linecap:round;fill:none"/>
            <path data-name="line" d="M7087.415 4122.793a3.932 3.932 0 0 1 3.917-3.519c3.539-.008 3.481-3.773 3.481-3.773" transform="translate(-6681.212 -4101.53)" style="stroke-width:2px;stroke:#bcbcbc;stroke-linecap:round;fill:none"/>
            <path data-name="line" d="m7072.453 4130.77 9.515 9.515" transform="translate(-6678.35 -4105.26)" style="stroke-width:2px;stroke:#bcbcbc;stroke-linecap:round;fill:none"/>
            <path data-name="line" d="m7077.324 4135.649 5.576 5.568" transform="translate(-6685.752 -4102.958)" style="stroke-width:2px;stroke:#bcbcbc;stroke-linecap:round;fill:none"/>
            <text data-name="가입 완료" transform="translate(401 71)" style="font-size:14px;fill:#b2b2b2;font-family:Pretendard-Regular,Pretendard"><tspan x="-25.965" y="0">가입 완료</tspan></text>
        </g>
        <text data-name="약관 동의" transform="translate(27 71)" style="font-size:14px;fill:#b2b2b2;font-family:Pretendard-Regular,Pretendard"><tspan x="-25.965" y="0">약관 동의</tspan></text>
        <path data-name="circle" d="M27 0A27 27 0 1 1 0 27 27 27 0 0 1 27 0z" style="fill:#f4f4f4"/>
        <path d="m705.035 292.211 7.73 8.832 14.27-16.77" transform="translate(-688.535 -265.773)" style="stroke-width:4px;stroke:#bcbcbc;stroke-linejoin:round;stroke-linecap:round;fill:none"/>
        <g transform="translate(-89)">
            <text data-name="정보 입력" transform="translate(224 71)" style="fill:#303030;font-family:Pretendard-Bold,Pretendard;font-weight:700;font-size:14px"><tspan x="-25.825" y="0">정보 입력</tspan></text>
            <circle data-name="circle" cx="27" cy="27" r="27" transform="translate(197)" style="fill:#763df4"/>
            <g data-name="icon" transform="translate(-730 -262)">
                <rect width="29" height="16" rx="4" transform="translate(940 285)" style="stroke:#fff;stroke-width:2px;stroke-linejoin:round;stroke-linecap:round;fill:none"/>
                <g data-name="line" transform="translate(945 290)" style="clip-path:url(#mz4grq1sqc)">
                    <path data-name="선 85" transform="translate(0 1)" style="stroke:#fff;stroke-width:2px;fill:none" d="M0 0h5"/>
                    <path data-name="선 85" transform="translate(7 1)" style="stroke:#fff;stroke-width:2px;fill:none" d="M0 0h5"/>
                    <path data-name="선 85" transform="translate(14 1)" style="stroke:#fff;stroke-width:2px;fill:none" d="M0 0h5"/>
                    <path data-name="선 85" transform="translate(0 5)" style="stroke:#fff;stroke-width:2px;fill:none" d="M0 0h5"/>
                    <path data-name="선 85" transform="translate(7 5)" style="stroke:#fff;stroke-width:2px;fill:none" d="M0 0h5"/>
                    <path data-name="선 85" transform="translate(14 5)" style="stroke:#fff;stroke-width:2px;fill:none" d="M0 0h5"/>
                </g>
                <path d="M2825.788 296.848v-5.706c0-.001.152-1.793 2.886-1.792h2.639a1.407 1.407 0 0 0 1.218-1.517c.022-1.417 0-2.682 0-2.682" transform="translate(-1870.787 -12.771)" style="stroke:#fff;stroke-width:2px;stroke-linecap:round;fill:none"/>
            </g>
        </g>
    </g>
</svg>
