<svg xmlns="http://www.w3.org/2000/svg" xmlns:xlink="http://www.w3.org/1999/xlink" width="64" height="64" viewBox="0 0 64 64">
  <defs>
    <clipPath id="clip-path">
      <rect id="사각형_4008" data-name="사각형 4008" width="64" height="64" fill="none"/>
    </clipPath>
  </defs>
  <g id="그룹_34571" data-name="그룹 34571" transform="translate(0 0)">
    <g id="그룹_34572" data-name="그룹 34572" transform="translate(0 0)" clip-path="url(#clip-path)">
      <path id="패스_11364" data-name="패스 11364" d="M64,32A32,32,0,1,1,32,0,32,32,0,0,1,64,32" transform="translate(0 0)" fill="#3e5460"/>
      <path id="패스_11365" data-name="패스 11365" d="M13.931,36.579a6.376,6.376,0,0,1-.686,3.032,5.659,5.659,0,0,1-2.042,2.14,10.55,10.55,0,0,1-3.388,1.289L7.187,41.53a9.447,9.447,0,0,0,2.687-.9,4.121,4.121,0,0,0,1.541-1.345,3.159,3.159,0,0,0,.5-1.712v-.99Zm-1.258,1.49H7.934v-1.49h4.739Zm5.538,5.152v3.635H11.265v1.676H9.4V45.479h6.941v-.8H9.383V43.221Zm.293,5.981H9.4V47.727h9.1ZM16.51,41.715H13.324V40.3H16.51Zm.072-2.573H13.406V37.73h3.176Zm1.63,3.6H16.355V36.053h1.856Z" transform="translate(0.188 0.945)" fill="#fff"/>
      <path id="패스_11366" data-name="패스 11366" d="M22.339,39.612a13.62,13.62,0,0,1-.32,2.954,8.669,8.669,0,0,1-.974,2.521,4.958,4.958,0,0,1-1.671,1.743l-1.124-1.372a4.789,4.789,0,0,0,1.536-1.508,6.737,6.737,0,0,0,.871-2.034,9.534,9.534,0,0,0,.273-2.3v-1.4h1.408Zm2.4-.707H18.755v-1.49h5.982Zm-2.01.707a9.007,9.007,0,0,0,.258,2.227,6.006,6.006,0,0,0,.851,1.916,4.557,4.557,0,0,0,1.517,1.4l-1.088,1.366a4.807,4.807,0,0,1-1.669-1.65,7.623,7.623,0,0,1-.949-2.387,13.23,13.23,0,0,1-.3-2.876v-1.4h1.377Zm3.305,2.495H23.794v-1.5h2.238Zm1.253,6.611H25.542V36.275h1.743ZM30,49.336H28.239V36.053H30Z" transform="translate(0.478 0.945)" fill="#fff"/>
      <path id="패스_11367" data-name="패스 11367" d="M30.037,43.376q2.491,0,4.571-.063t3.938-.3l.129,1.34a33.382,33.382,0,0,1-4,.439q-2.061.1-4.412.1Zm4.945-4.636a4.024,4.024,0,0,1-.413,1.823,3.77,3.77,0,0,1-1.25,1.413,5.446,5.446,0,0,1-2.066.833l-.764-1.444a5.138,5.138,0,0,0,1.666-.58,2.816,2.816,0,0,0,1-.921,2.148,2.148,0,0,0,.33-1.125v-.181h1.5Zm3.011.088H30.847V37.394h7.147Zm-2.64,10.1H33.486V43.6h1.867Zm0-10.5H33.5V36.084h1.856Zm0,.314a1.866,1.866,0,0,0,.323,1.047,2.7,2.7,0,0,0,.987.856,5.447,5.447,0,0,0,1.645.547l-.733,1.428a5.514,5.514,0,0,1-2.054-.789,3.684,3.684,0,0,1-1.248-1.348,3.644,3.644,0,0,1-.41-1.74v-.181h1.49ZM41.2,49.326H39.35V36.073H41.2Z" transform="translate(0.787 0.946)" fill="#fff"/>
      <path id="패스_11368" data-name="패스 11368" d="M53.641,47.729H41.5v-1.49H53.641Zm-5.508-9.983a5.433,5.433,0,0,1-.675,2.655,6.037,6.037,0,0,1-1.933,2.091,7.585,7.585,0,0,1-2.944,1.168l-.794-1.552a6.55,6.55,0,0,0,2.524-.895,4.942,4.942,0,0,0,1.627-1.583,3.6,3.6,0,0,0,.561-1.884V36.8h1.635Zm.295,8.894H46.582v-3.4h1.846Zm.056-8.894a3.513,3.513,0,0,0,.556,1.889,4.922,4.922,0,0,0,1.641,1.578,6.714,6.714,0,0,0,2.547.895l-.794,1.552A7.817,7.817,0,0,1,49.472,42.5a5.933,5.933,0,0,1-1.942-2.078,5.423,5.423,0,0,1-.67-2.673V36.8h1.624Z" transform="translate(1.088 0.965)" fill="#fff"/>
      <path id="패스_11369" data-name="패스 11369" d="M39.523,31.45H16.946a4.211,4.211,0,0,1-4.1-4.3V14.6a4.211,4.211,0,0,1,4.1-4.3H39.523a4.211,4.211,0,0,1,4.1,4.3V27.15a4.211,4.211,0,0,1-4.1,4.3m-22.577-19.1A2.16,2.16,0,0,0,14.893,14.6V27.15A2.16,2.16,0,0,0,16.946,29.4H39.523a2.159,2.159,0,0,0,2.052-2.248V14.6a2.159,2.159,0,0,0-2.052-2.248Z" transform="translate(0.337 0.27)" fill="#fff"/>
      <rect id="사각형_4004" data-name="사각형 4004" width="28.898" height="2.052" transform="translate(14.204 23.953)" fill="#fff"/>
      <path id="패스_11370" data-name="패스 11370" d="M20.31,16.28A1.484,1.484,0,1,1,18.826,14.8,1.484,1.484,0,0,1,20.31,16.28" transform="translate(0.455 0.388)" fill="#fff"/>
      <rect id="사각형_4005" data-name="사각형 4005" width="17.143" height="15.511" transform="translate(31.184 16.651)" fill="#3e5460"/>
      <rect id="사각형_4006" data-name="사각형 4006" width="4.618" height="21.242" transform="translate(34.504 18.503) rotate(-45)" fill="#f7f006"/>
      <rect id="사각형_4007" data-name="사각형 4007" width="21.242" height="4.618" transform="translate(34.504 30.258) rotate(-45)" fill="#f7f006"/>
    </g>
  </g>
</svg>
