<svg xmlns="http://www.w3.org/2000/svg" xmlns:xlink="http://www.w3.org/1999/xlink" width="64" height="64" viewBox="0 0 64 64">
  <defs>
    <clipPath id="clip-path">
      <rect id="사각형_525" data-name="사각형 525" width="64" height="64" fill="none"/>
    </clipPath>
  </defs>
  <g id="그룹_781" data-name="그룹 781" transform="translate(0 0)">
    <g id="그룹_780" data-name="그룹 780" transform="translate(0 0)" clip-path="url(#clip-path)">
      <path id="패스_981" data-name="패스 981" d="M64,32A32,32,0,1,1,32,0,32,32,0,0,1,64,32" transform="translate(0 0)" fill="#fcce03"/>
      <path id="패스_982" data-name="패스 982" d="M41.459,69.935A13.967,13.967,0,0,1,27.508,55.984H32.1a9.358,9.358,0,0,0,18.716,0H55.41A13.967,13.967,0,0,1,41.459,69.935" transform="translate(-9.459 -19.25)" fill="#0a0909"/>
      <path id="패스_983" data-name="패스 983" d="M34.089,28.7c-2.283,0-4.134,2.763-4.134,6.17s1.851,6.171,4.134,6.171,4.134-2.763,4.134-6.171-1.851-6.17-4.134-6.17" transform="translate(-10.3 -9.87)" fill="#0a0909"/>
      <path id="패스_984" data-name="패스 984" d="M59.117,28.7c-2.284,0-4.135,2.763-4.135,6.17s1.851,6.171,4.135,6.171,4.134-2.763,4.134-6.171S61.4,28.7,59.117,28.7" transform="translate(-18.906 -9.87)" fill="#0a0909"/>
    </g>
  </g>
</svg>
