<svg xmlns="http://www.w3.org/2000/svg" xmlns:xlink="http://www.w3.org/1999/xlink" width="64" height="64" viewBox="0 0 64 64">
  <defs>
    <clipPath id="clip-path">
      <rect id="사각형_3997" data-name="사각형 3997" width="64" height="64" fill="none"/>
    </clipPath>
  </defs>
  <g id="그룹_34567" data-name="그룹 34567" transform="translate(0 0)">
    <g id="그룹_34566" data-name="그룹 34566" transform="translate(0 0)" clip-path="url(#clip-path)">
      <path id="패스_11349" data-name="패스 11349" d="M64,32A32,32,0,1,1,32,0,32,32,0,0,1,64,32" transform="translate(0 0)" fill="#0089e5"/>
      <path id="패스_11350" data-name="패스 11350" d="M13.931,36.579a6.376,6.376,0,0,1-.686,3.032,5.659,5.659,0,0,1-2.042,2.14,10.56,10.56,0,0,1-3.388,1.289l-.63-1.511a9.454,9.454,0,0,0,2.688-.9,4.121,4.121,0,0,0,1.541-1.345,3.149,3.149,0,0,0,.495-1.712v-.99Zm-1.258,1.49H7.934v-1.49h4.739Zm5.538,5.152v3.635H11.265v1.676H9.4V45.479h6.941v-.8H9.383V43.221Zm.293,5.981H9.4V47.727h9.1Zm-2-7.487H13.323V40.3h3.186Zm.073-2.573H13.406V37.73h3.176Zm1.63,3.6H16.355V36.053h1.856Z" transform="translate(0.188 0.945)" fill="#fff"/>
      <path id="패스_11351" data-name="패스 11351" d="M22.339,39.612a13.684,13.684,0,0,1-.32,2.954,8.641,8.641,0,0,1-.975,2.521,4.955,4.955,0,0,1-1.67,1.743L18.25,45.458a4.769,4.769,0,0,0,1.536-1.508,6.711,6.711,0,0,0,.871-2.034,9.535,9.535,0,0,0,.274-2.3v-1.4h1.408Zm2.4-.707H18.755v-1.49h5.982Zm-2.01.707a8.91,8.91,0,0,0,.258,2.227,6.006,6.006,0,0,0,.851,1.916,4.554,4.554,0,0,0,1.516,1.4l-1.088,1.366a4.813,4.813,0,0,1-1.668-1.65,7.6,7.6,0,0,1-.949-2.387,13.231,13.231,0,0,1-.3-2.876v-1.4h1.377Zm3.3,2.495H23.793v-1.5h2.238Zm1.254,6.611H25.542V36.275h1.743ZM30,49.336H28.239V36.053H30Z" transform="translate(0.478 0.945)" fill="#fff"/>
      <path id="패스_11352" data-name="패스 11352" d="M29.971,42.989q2.166,0,4.221-.083t3.824-.34l.14,1.351a30.871,30.871,0,0,1-3.834.438q-2,.108-4.154.109ZM34,36.6a4.181,4.181,0,0,1,1.719.34,2.835,2.835,0,0,1,1.191.954,2.409,2.409,0,0,1,.436,1.4,2.379,2.379,0,0,1-.436,1.386,2.841,2.841,0,0,1-1.193.957,4.5,4.5,0,0,1-3.444,0,2.81,2.81,0,0,1-1.189-.957,2.343,2.343,0,0,1-.42-1.386,2.374,2.374,0,0,1,.42-1.4,2.807,2.807,0,0,1,1.186-.954A4.212,4.212,0,0,1,34,36.6m-.4,11.654H31.725V45.309H33.6Zm7.477.83H31.725v-1.5h9.354ZM34,38.007a2.173,2.173,0,0,0-.84.152,1.268,1.268,0,0,0-.57.443,1.161,1.161,0,0,0-.2.7,1.128,1.128,0,0,0,.2.686,1.271,1.271,0,0,0,.57.441,2.173,2.173,0,0,0,.84.152,2.134,2.134,0,0,0,.838-.152,1.249,1.249,0,0,0,.556-.441,1.2,1.2,0,0,0,.2-.686,1.189,1.189,0,0,0-.759-1.142A2.134,2.134,0,0,0,34,38.007m.958,5.455H33.1V41.441h1.867ZM40.619,46.2H38.757V36.073h1.862Zm1.7-4.4H39.96V40.251h2.361Z" transform="translate(0.786 0.946)" fill="#fff"/>
      <path id="패스_11353" data-name="패스 11353" d="M53.641,47.829H41.5V46.308H53.641ZM52.243,36.9v4.4H44.756V43.56H42.9V39.817h7.5V38.393H42.879V36.9Zm.309,7.373H42.9v-1.5h9.653Zm-6.131,2.646h-1.81v-3.15h1.81Zm4.254,0H48.845V43.761h1.831Z" transform="translate(1.088 0.967)" fill="#fff"/>
      <path id="패스_11354" data-name="패스 11354" d="M39.524,31.45H16.946a4.211,4.211,0,0,1-4.1-4.3V14.6a4.211,4.211,0,0,1,4.1-4.3H39.524a4.211,4.211,0,0,1,4.1,4.3V27.15a4.211,4.211,0,0,1-4.1,4.3m-22.578-19.1A2.16,2.16,0,0,0,14.893,14.6V27.15A2.16,2.16,0,0,0,16.946,29.4H39.524a2.16,2.16,0,0,0,2.052-2.248V14.6a2.16,2.16,0,0,0-2.052-2.248Z" transform="translate(0.337 0.27)" fill="#fff"/>
      <rect id="사각형_3995" data-name="사각형 3995" width="28.898" height="2.052" transform="translate(14.204 23.953)" fill="#fff"/>
      <path id="패스_11355" data-name="패스 11355" d="M20.31,16.28A1.484,1.484,0,1,1,18.826,14.8,1.484,1.484,0,0,1,20.31,16.28" transform="translate(0.455 0.388)" fill="#fff"/>
      <rect id="사각형_3996" data-name="사각형 3996" width="17.143" height="13.225" transform="translate(31.184 18.938)" fill="#0089e5"/>
      <path id="패스_11356" data-name="패스 11356" d="M40.863,31.676,32.3,23.109l3.265-3.265,5.3,5.3L52.6,13.412l3.265,3.265Z" transform="translate(0.847 0.351)" fill="#f7f006"/>
    </g>
  </g>
</svg>
