<svg xmlns="http://www.w3.org/2000/svg" width="24" height="24" viewBox="0 0 24 24">
    <g data-name="m_icon_coupon_24">
        <path style="opacity:.3;fill:none" d="M0 0h24v24H0z"/>
        <g data-name="빼기 1" style="fill:#fff">
            <path d="M-3468 22795.252H-3484a1.252 1.252 0 0 1-1.247-1.254v-2.353a2.756 2.756 0 0 0 1.997-2.647 2.753 2.753 0 0 0-1.997-2.643v-2.357c0-.687.56-1.246 1.247-1.246h16.002c.687 0 1.246.559 1.246 1.246v2.36a2.752 2.752 0 0 0-1.996 2.64c0 1.258.845 2.32 1.996 2.648v2.352c0 .691-.559 1.254-1.246 1.254z" style="stroke:none" transform="translate(3488 -22777)"/>
            <path d="M-3468 22794.502a.501.501 0 0 0 .497-.504v-1.836a3.508 3.508 0 0 1-1.996-3.164c0-1.389.817-2.594 1.996-3.156v-1.844a.497.497 0 0 0-.496-.496h-16.002a.497.497 0 0 0-.497.496v1.842a3.502 3.502 0 0 1 1.997 3.158 3.508 3.508 0 0 1-1.997 3.162v1.838c0 .277.223.504.497.504h16.002m0 1.5h-16.002c-1.1 0-1.997-.9-1.997-2.004V22791a1.998 1.998 0 0 0 0-3.998v-3.004a2 2 0 0 1 1.997-1.996h16.002a2 2 0 0 1 1.996 1.996v3.004a2 2 0 0 0 0 3.998v2.998a2.004 2.004 0 0 1-1.996 2.004z" style="fill:#424242;stroke:none" transform="translate(3488 -22777)"/>
        </g>
        <path data-name="선 1597" transform="translate(15.5 5.5)" style="stroke:#424242;stroke-width:1.5px;stroke-dasharray:2.5 1;fill:none" d="M0 0v13"/>
    </g>
</svg>
