<svg data-name="icon_ blind_24" xmlns="http://www.w3.org/2000/svg" width="24" height="24" viewBox="0 0 24 24">
    <g data-name="icon_ blind_hide_24">
        <path transform="rotate(90 12 12)" style="fill:none" d="M0 0h24v24H0z"/>
        <path data-name="패스 83152" d="M10.341 9.341a2.25 2.25 0 0 1-3.182-3.182" transform="translate(3.25 4.25)" style="stroke:#a8a8a8;stroke-linecap:round;stroke-linejoin:round;stroke-width:1.5px;fill:none"/>
        <path data-name="패스 83153" d="m15.75 14.75-2.821-2.821-8.358-8.358L1.75.75" transform="translate(3.25 4.25)" style="stroke:#a8a8a8;stroke-linecap:round;stroke-linejoin:round;stroke-width:1.5px;fill:none"/>
        <path data-name="패스 83154" d="M12.93 11.93a7.546 7.546 0 0 1-4.18 1.32c-5.091 0-8-5.5-8-5.5a12.792 12.792 0 0 1 3.821-4.18" transform="translate(3.25 4.25)" style="stroke:#a8a8a8;stroke-linecap:round;stroke-linejoin:round;stroke-width:1.5px;fill:none"/>
        <path data-name="패스 83155" d="M7.591 2.347a6.944 6.944 0 0 1 1.159-.1c5.091 0 8 5.5 8 5.5a12.676 12.676 0 0 1-1.568 2.19" transform="translate(3.25 4.25)" style="stroke:#a8a8a8;stroke-linecap:round;stroke-linejoin:round;stroke-width:1.5px;fill:none"/>
    </g>
</svg>
