<svg xmlns="http://www.w3.org/2000/svg" width="56.569" height="56.569" viewBox="0 0 56.569 56.569">
  <g id="그룹_34877" data-name="그룹 34877" transform="translate(-0.233 0.06)">
    <path id="패스_12833" data-name="패스 12833" d="M10.967.017,29.072-.009A10.9,10.9,0,0,1,39.991,10.91l-.026,18.105a10.973,10.973,0,0,1-10.95,10.95l-18.105.026A10.9,10.9,0,0,1-.009,29.072L.017,10.967A10.973,10.973,0,0,1,10.967.017Z" transform="translate(28.518 -0.047) rotate(45)" fill="#454c79"/>
    <path id="합치기_391" data-name="합치기 391" d="M10.053,22.729V15.3H2.623a2.623,2.623,0,0,1,0-5.246h7.43V2.623a2.623,2.623,0,0,1,5.246,0v7.43h7.43a2.623,2.623,0,0,1,0,5.246H15.3v7.43a2.623,2.623,0,0,1-5.246,0Z" transform="translate(15.841 15.759)" fill="#fff"/>
  </g>
</svg>
