<svg id="ico_eye_off" xmlns="http://www.w3.org/2000/svg" xmlns:xlink="http://www.w3.org/1999/xlink" width="24" height="24" viewBox="0 0 24 24">
  <defs>
    <clipPath id="clip-path">
      <rect id="사각형_3856" data-name="사각형 3856" width="24" height="24" fill="#be1515" opacity="0.459"/>
    </clipPath>
  </defs>
  <g id="마스크_그룹_90" data-name="마스크 그룹 90" clip-path="url(#clip-path)">
    <g id="그룹_34308" data-name="그룹 34308" transform="translate(0.128 4.852)">
      <path id="icon" d="M775.578,423.64c-4.425,0-8.437,2.4-11.4,6.3a.9.9,0,0,0,0,1.085c2.961,3.9,6.973,6.3,11.4,6.3s8.437-2.4,11.4-6.3a.9.9,0,0,0,0-1.085c-2.961-3.9-6.973-6.3-11.4-6.3Zm.317,11.66a4.829,4.829,0,1,1,4.543-4.5,4.853,4.853,0,0,1-4.543,4.5Zm-.067-1a3.825,3.825,0,1,1,3.6-3.572,3.836,3.836,0,0,1-3.6,3.572Zm-.079-1.223" transform="translate(-764 -423.229)" fill="#33b3d1"/>
    </g>
  </g>
</svg>
