<svg xmlns="http://www.w3.org/2000/svg" xmlns:xlink="http://www.w3.org/1999/xlink" width="80" height="80" viewBox="0 0 80 80">
  <defs>
    <clipPath id="clip-path">
      <rect id="사각형_4016" data-name="사각형 4016" width="80" height="80" fill="none"/>
    </clipPath>
  </defs>
  <g id="그룹_34588" data-name="그룹 34588" transform="translate(0 0)">
    <g id="그룹_34587" data-name="그룹 34587" transform="translate(0 0)" clip-path="url(#clip-path)">
      <path id="패스_11405" data-name="패스 11405" d="M80,40A40,40,0,1,1,40,0,40,40,0,0,1,80,40" transform="translate(0 0)" fill="#a2bbbc"/>
      <path id="패스_11406" data-name="패스 11406" d="M22.813,51.607H15.306V41.178h7.507Zm-5.338-1.728H20.7V42.874H17.475ZM27.541,55.35H25.336V39.758h2.205Z" transform="translate(4.328 11.242)" fill="#fff"/>
      <path id="패스_11407" data-name="패스 11407" d="M34.692,42.883H25.465V41.175h9.227Zm-4.608.5a5.232,5.232,0,0,1,1.984.366,3.162,3.162,0,0,1,1.353,1.008,2.551,2.551,0,0,1,0,2.993,3.122,3.122,0,0,1-1.353,1.008,5.185,5.185,0,0,1-1.984.357,5.269,5.269,0,0,1-2-.357,3.147,3.147,0,0,1-1.367-1.011,2.509,2.509,0,0,1,0-2.986,3.179,3.179,0,0,1,1.367-1.012,5.317,5.317,0,0,1,2-.366m7.718,6.8V55.33H35.616V51.924H27.337V50.185Zm-7.718-5.163a2.69,2.69,0,0,0-.921.145,1.308,1.308,0,0,0-.605.419,1.056,1.056,0,0,0-.212.667,1.031,1.031,0,0,0,.212.662,1.276,1.276,0,0,0,.605.4,2.83,2.83,0,0,0,.921.136A2.761,2.761,0,0,0,31,47.317a1.369,1.369,0,0,0,.616-.408.99.99,0,0,0,.223-.656,1.027,1.027,0,0,0-.223-.667A1.4,1.4,0,0,0,31,45.167a2.66,2.66,0,0,0-.918-.145m1.088-2.88H29V39.7h2.174ZM37.8,49.533H35.617V39.774H37.8Zm2.09-3.938H37.187V43.82h2.705Z" transform="translate(7.201 11.226)" fill="#fff"/>
      <path id="패스_11408" data-name="패스 11408" d="M50.414,48.268H36.234V46.517h14.18Zm-6.328-7.857a4.4,4.4,0,0,1-.774,2.487,5.975,5.975,0,0,1-2.206,1.913,9.753,9.753,0,0,1-3.385,1.017l-.8-1.7a9.428,9.428,0,0,0,2.868-.771,4.863,4.863,0,0,0,1.8-1.338,2.607,2.607,0,0,0,.611-1.606v-.526h1.884Zm-4.041,8.642v1.323h6.4V49.053h2.168V55.1H37.89V49.053Zm0,4.336h6.4V52.024h-6.4Zm4.4-12.978a2.546,2.546,0,0,0,.6,1.592,4.912,4.912,0,0,0,1.8,1.355,8.938,8.938,0,0,0,2.853.768l-.767,1.7A9.672,9.672,0,0,1,45.529,44.8a5.989,5.989,0,0,1-2.2-1.911,4.328,4.328,0,0,1-.756-2.482v-.526h1.872Z" transform="translate(10.246 11.278)" fill="#fff"/>
      <path id="패스_11409" data-name="패스 11409" d="M14.091,36.088a1.282,1.282,0,0,1-1.283-1.283V11.312l.912-.276c14.7-4.446,20.183,3.975,20.41,4.337a1.282,1.282,0,0,1-2.168,1.369c-.2-.3-4.567-6.772-16.589-3.512V34.806a1.282,1.282,0,0,1-1.283,1.283" transform="translate(3.622 2.755)" fill="#fff"/>
      <path id="패스_11410" data-name="패스 11410" d="M33.045,35.129a1.28,1.28,0,0,1-1.084-.6c-.2-.31-4.783-7.1-17.5-3.252a1.282,1.282,0,1,1-.741-2.455c14.7-4.446,20.183,3.977,20.41,4.337a1.283,1.283,0,0,1-.405,1.769,1.268,1.268,0,0,1-.68.2" transform="translate(3.622 7.786)" fill="#fff"/>
      <path id="패스_11411" data-name="패스 11411" d="M48.177,36.088a1.282,1.282,0,0,1-1.283-1.283V13.229c-10.778-2.918-15.4,1.972-16.389,3.238V27.554a1.283,1.283,0,0,1-2.566,0V15.685l.2-.312c.226-.362,5.712-8.782,20.411-4.337l.912.276V34.806a1.282,1.282,0,0,1-1.283,1.283" transform="translate(7.901 2.755)" fill="#fff"/>
      <path id="패스_11412" data-name="패스 11412" d="M29.221,35.125a1.261,1.261,0,0,1-.685-.2,1.278,1.278,0,0,1-.4-1.76c.226-.362,5.712-8.783,20.411-4.337a1.282,1.282,0,1,1-.741,2.455c-12.742-3.853-17.314,2.961-17.5,3.253a1.294,1.294,0,0,1-1.084.589" transform="translate(7.901 7.786)" fill="#fff"/>
      <path id="패스_11413" data-name="패스 11413" d="M41.549,35.579H21.568a1.283,1.283,0,1,1,0-2.566H41.549a1.283,1.283,0,1,1,0,2.566" transform="translate(5.736 9.335)" fill="#fff"/>
      <rect id="사각형_4015" data-name="사각형 4015" width="21.429" height="16.531" transform="translate(42.192 24.142)" fill="#a2bbbc"/>
      <path id="패스_11414" data-name="패스 11414" d="M51.872,36.548a2.555,2.555,0,0,1-1.814-.752L37.609,23.347a2.565,2.565,0,1,1,3.628-3.628L53.686,32.169a2.566,2.566,0,0,1-1.814,4.379" transform="translate(10.422 5.363)" fill="#f7f006"/>
      <path id="패스_11415" data-name="패스 11415" d="M39.422,36.548a2.566,2.566,0,0,1-1.814-4.379L50.058,19.72a2.565,2.565,0,1,1,3.628,3.628L41.236,35.8a2.555,2.555,0,0,1-1.814.752" transform="translate(10.422 5.363)" fill="#f7f006"/>
    </g>
  </g>
</svg>
