<svg xmlns="http://www.w3.org/2000/svg" xmlns:xlink="http://www.w3.org/1999/xlink" width="80" height="80" viewBox="0 0 80 80">
  <defs>
    <clipPath id="clip-path">
      <rect id="사각형_4012" data-name="사각형 4012" width="80" height="80" fill="none"/>
    </clipPath>
  </defs>
  <g id="그룹_34584" data-name="그룹 34584" transform="translate(0 0)">
    <g id="그룹_34580" data-name="그룹 34580" transform="translate(0 0)" clip-path="url(#clip-path)">
      <path id="패스_11383" data-name="패스 11383" d="M80,40A40,40,0,1,1,40,0,40,40,0,0,1,80,40" transform="translate(0 0)" fill="#2dc2d6"/>
      <path id="패스_11384" data-name="패스 11384" d="M18.786,44.66a15,15,0,0,1-.393,3.431,9.468,9.468,0,0,1-1.219,2.93,6.149,6.149,0,0,1-2.1,2.043L13.74,51.317a5.789,5.789,0,0,0,1.884-1.724A7.286,7.286,0,0,0,16.7,47.276a10.35,10.35,0,0,0,.343-2.617v-.471h1.746Zm3.056-.381H14.365V42.416h7.477Zm-2.63-.36H17.041V40.179h2.172Zm.019.741a9.1,9.1,0,0,0,.332,2.526,6.664,6.664,0,0,0,1.067,2.182,5.562,5.562,0,0,0,1.863,1.6l-1.276,1.7a5.7,5.7,0,0,1-2.137-1.888,8.379,8.379,0,0,1-1.221-2.781,13.748,13.748,0,0,1-.373-3.335v-.471h1.746ZM23.557,47.8H20.868V45.9h2.689ZM25,55.43H22.822V39.876H25Zm3.392.774h-2.2V39.6h2.2Z" transform="translate(3.885 11.197)" fill="#fff"/>
      <path id="패스_11385" data-name="패스 11385" d="M35.28,42.934H25.5v-1.85H35.28Zm-4.873.548a5.275,5.275,0,0,1,2.056.381,3.3,3.3,0,0,1,1.415,1.06,2.64,2.64,0,0,1,0,3.107,3.276,3.276,0,0,1-1.412,1.057,5.829,5.829,0,0,1-4.125,0,3.323,3.323,0,0,1-1.417-1.057,2.608,2.608,0,0,1,0-3.107,3.345,3.345,0,0,1,1.421-1.06,5.289,5.289,0,0,1,2.063-.381m9.042,12.562H28.3V50.365h11.15ZM30.407,45.236a2.662,2.662,0,0,0-.945.139,1.308,1.308,0,0,0-.608.422,1.03,1.03,0,0,0-.205.671,1.1,1.1,0,0,0,.205.7,1.3,1.3,0,0,0,.608.435,2.6,2.6,0,0,0,.945.141,2.473,2.473,0,0,0,.921-.144,1.342,1.342,0,0,0,.609-.439,1.121,1.121,0,0,0,.217-.693,1.06,1.06,0,0,0-.217-.671,1.325,1.325,0,0,0-.609-.422,2.559,2.559,0,0,0-.921-.139m1.14-2.811h-2.3V39.5h2.3Zm-.921,11.757h6.549V52.2H30.626Zm7.45-7.78H34.983v-1.9h3.094Zm1.373,3.268H37.129V39.627h2.321Z" transform="translate(7.212 11.169)" fill="#fff"/>
      <path id="패스_11386" data-name="패스 11386" d="M52.1,48.853H36.967V46.99H52.1Zm-7.116-7.432a3.9,3.9,0,0,1-.77,2.318,5.638,5.638,0,0,1-2.245,1.733,10.922,10.922,0,0,1-3.561.886l-.779-1.824a10.212,10.212,0,0,0,2.905-.629,4.833,4.833,0,0,0,1.8-1.134,2,2,0,0,0,.6-1.351v-.426h2.056Zm5.749.573H38.341V40.157H50.735ZM44.5,50.045a12.157,12.157,0,0,1,3.09.345,4.416,4.416,0,0,1,1.992,1.022,2.251,2.251,0,0,1,0,3.261A4.443,4.443,0,0,1,47.592,55.7a11.887,11.887,0,0,1-3.09.341,12.045,12.045,0,0,1-3.12-.341,4.458,4.458,0,0,1-1.995-1.022,2.268,2.268,0,0,1,0-3.263,4.42,4.42,0,0,1,1.995-1.022,12.317,12.317,0,0,1,3.12-.345m0,1.754a11.04,11.04,0,0,0-1.918.149,2.917,2.917,0,0,0-1.144.412.8.8,0,0,0-.375.684.813.813,0,0,0,.377.686,2.809,2.809,0,0,0,1.152.418,13,13,0,0,0,3.8,0,2.851,2.851,0,0,0,1.156-.418.846.846,0,0,0,.4-.686.809.809,0,0,0-.394-.68,2.993,2.993,0,0,0-1.153-.416,10.9,10.9,0,0,0-1.9-.149m1.166-1.1h-2.3v-2.94h2.3Zm.445-9.282a1.991,1.991,0,0,0,.58,1.361,4.724,4.724,0,0,0,1.8,1.128,10.54,10.54,0,0,0,2.968.625l-.813,1.824a11.114,11.114,0,0,1-3.576-.883,5.659,5.659,0,0,1-2.26-1.73,3.835,3.835,0,0,1-.77-2.324v-.426h2.076Z" transform="translate(10.453 11.355)" fill="#fff"/>
      <path id="패스_11387" data-name="패스 11387" d="M14.091,36.088a1.282,1.282,0,0,1-1.283-1.283V11.312l.912-.276c14.7-4.446,20.186,3.977,20.411,4.337a1.282,1.282,0,0,1-2.168,1.369c-.2-.3-4.565-6.772-16.59-3.512V34.806a1.282,1.282,0,0,1-1.283,1.283" transform="translate(3.622 2.755)" fill="#fff"/>
      <path id="패스_11388" data-name="패스 11388" d="M33.046,35.129a1.282,1.282,0,0,1-1.084-.6c-.2-.309-4.783-7.1-17.5-3.252a1.282,1.282,0,1,1-.741-2.455c14.7-4.444,20.186,3.978,20.411,4.337a1.283,1.283,0,0,1-1.085,1.965" transform="translate(3.622 7.786)" fill="#fff"/>
      <path id="패스_11389" data-name="패스 11389" d="M48.177,36.088a1.282,1.282,0,0,1-1.283-1.283V13.229c-10.777-2.918-15.4,1.972-16.389,3.238V27.554a1.283,1.283,0,0,1-2.566,0V15.685l.2-.312c.226-.362,5.713-8.782,20.411-4.337l.912.276V34.806a1.282,1.282,0,0,1-1.283,1.283" transform="translate(7.901 2.755)" fill="#fff"/>
      <path id="패스_11390" data-name="패스 11390" d="M29.221,35.125a1.261,1.261,0,0,1-.685-.2,1.278,1.278,0,0,1-.4-1.76c.226-.362,5.713-8.783,20.411-4.337a1.282,1.282,0,1,1-.741,2.455c-12.743-3.853-17.314,2.961-17.5,3.253a1.294,1.294,0,0,1-1.084.589" transform="translate(7.901 7.786)" fill="#fff"/>
      <path id="패스_11391" data-name="패스 11391" d="M41.549,35.579H21.568a1.283,1.283,0,1,1,0-2.566H41.549a1.283,1.283,0,1,1,0,2.566" transform="translate(5.736 9.335)" fill="#fff"/>
      <rect id="사각형_4011" data-name="사각형 4011" width="21.429" height="16.531" transform="translate(42.192 24.142)" fill="#2dc2d6"/>
      <path id="패스_11392" data-name="패스 11392" d="M43.151,36.581a9.643,9.643,0,1,1,9.644-9.643,9.654,9.654,0,0,1-9.644,9.643m0-14.155a4.512,4.512,0,1,0,4.513,4.513,4.518,4.518,0,0,0-4.513-4.513" transform="translate(9.475 4.89)" fill="#f7f006"/>
      <path id="패스_11393" data-name="패스 11393" d="M51.051,37.4a2.555,2.555,0,0,1-1.814-.752l-5.159-5.158a2.566,2.566,0,0,1,3.629-3.628l5.158,5.158A2.566,2.566,0,0,1,51.051,37.4" transform="translate(12.251 7.667)" fill="#f7f006"/>
    </g>
  </g>
</svg>
