<svg xmlns="http://www.w3.org/2000/svg" xmlns:xlink="http://www.w3.org/1999/xlink" width="80" height="80" viewBox="0 0 80 80">
  <defs>
    <clipPath id="clip-path">
      <rect id="사각형_4014" data-name="사각형 4014" width="80" height="80" fill="none"/>
    </clipPath>
  </defs>
  <g id="그룹_34585" data-name="그룹 34585" transform="translate(0 0)">
    <g id="그룹_34581" data-name="그룹 34581" transform="translate(0 0)" clip-path="url(#clip-path)">
      <path id="패스_11394" data-name="패스 11394" d="M80,40A40,40,0,1,1,40,0,40,40,0,0,1,80,40" transform="translate(0 0)" fill="#e89400"/>
      <path id="패스_11395" data-name="패스 11395" d="M13.679,44.367a13.748,13.748,0,0,1-.36,3.14A8.625,8.625,0,0,1,12.2,50.186a5.607,5.607,0,0,1-1.922,1.869l-1.22-1.6a5.328,5.328,0,0,0,1.724-1.578,6.682,6.682,0,0,0,.981-2.119,9.376,9.376,0,0,0,.312-2.394v-.43h1.6Zm2.793-.348H9.633v-1.7h6.838Zm-2.405-.33H12.079V40.27h1.987Zm.018.677a8.314,8.314,0,0,0,.3,2.312,6.105,6.105,0,0,0,.976,2,5.1,5.1,0,0,0,1.7,1.459L15.9,51.689a5.221,5.221,0,0,1-1.954-1.727,7.645,7.645,0,0,1-1.119-2.544,12.691,12.691,0,0,1-.341-3.052v-.43h1.6Zm3.956,2.872H15.582V45.506H18.04Zm1.321,6.98H17.368V39.993h1.993Zm3.1.708h-2.01V39.74h2.01Z" transform="translate(2.562 11.237)" fill="#fff"/>
      <path id="패스_11396" data-name="패스 11396" d="M28.762,42.79H19.819V41.1h8.943Zm-4.456.5a4.834,4.834,0,0,1,1.882.348,3.033,3.033,0,0,1,1.293.97,2.3,2.3,0,0,1,.463,1.412,2.325,2.325,0,0,1-.463,1.429,3.007,3.007,0,0,1-1.29.967,5.332,5.332,0,0,1-3.774,0,3.044,3.044,0,0,1-1.3-.967,2.306,2.306,0,0,1-.469-1.429,2.282,2.282,0,0,1,.469-1.412,3.069,3.069,0,0,1,1.3-.97,4.851,4.851,0,0,1,1.887-.348m8.271,11.49h-10.2V49.587h10.2Zm-8.271-9.886a2.43,2.43,0,0,0-.863.127,1.2,1.2,0,0,0-.558.386.951.951,0,0,0-.187.613,1.013,1.013,0,0,0,.187.639,1.184,1.184,0,0,0,.558.4,2.37,2.37,0,0,0,.863.131,2.254,2.254,0,0,0,.843-.133,1.229,1.229,0,0,0,.558-.4,1.028,1.028,0,0,0,.2-.634.973.973,0,0,0-.2-.613,1.216,1.216,0,0,0-.558-.386,2.34,2.34,0,0,0-.843-.127m1.043-2.571H23.244V39.648h2.105Zm-.843,10.753H30.5V51.261H24.506Zm6.817-7.116h-2.83V44.227h2.83Zm1.255,2.989H30.456V39.765h2.122Z" transform="translate(5.604 11.211)" fill="#fff"/>
      <path id="패스_11397" data-name="패스 11397" d="M36.3,41.5v1.709H32.772v7.358H30.637V41.5ZM31.7,49.708q1.659,0,2.854-.073a20.443,20.443,0,0,0,2.453-.3l.159,1.733a20.323,20.323,0,0,1-2.512.331q-1.233.083-2.954.089H30.637V49.708Zm8.155,4.476H37.9V40.006h1.951ZM41.8,47.31H39.226v-1.7H41.8Zm1.521,7.617h-2.01V39.74h2.01Z" transform="translate(8.663 11.237)" fill="#fff"/>
      <path id="패스_11398" data-name="패스 11398" d="M49.006,41.337a14.239,14.239,0,0,1-.659,4.431,9.822,9.822,0,0,1-2.209,3.652,13.558,13.558,0,0,1-4.177,2.9l-1.108-1.692A13.023,13.023,0,0,0,44.364,48.3a7.839,7.839,0,0,0,1.931-2.9A10.624,10.624,0,0,0,46.9,41.7v-.366ZM47.88,43.006H41.665V41.337H47.88Zm5.671,11.921H51.4V39.74h2.152Z" transform="translate(11.552 11.237)" fill="#fff"/>
      <path id="패스_11399" data-name="패스 11399" d="M14.091,36.088a1.282,1.282,0,0,1-1.283-1.283V11.312l.912-.276c14.7-4.446,20.186,3.977,20.411,4.337a1.282,1.282,0,0,1-2.168,1.369c-.2-.3-4.563-6.772-16.59-3.512V34.806a1.282,1.282,0,0,1-1.283,1.283" transform="translate(3.622 2.755)" fill="#fff"/>
      <path id="패스_11400" data-name="패스 11400" d="M33.046,35.129a1.282,1.282,0,0,1-1.084-.6c-.2-.309-4.783-7.1-17.5-3.252a1.282,1.282,0,1,1-.741-2.455c14.7-4.444,20.186,3.978,20.411,4.337a1.283,1.283,0,0,1-1.085,1.965" transform="translate(3.622 7.786)" fill="#fff"/>
      <path id="패스_11401" data-name="패스 11401" d="M48.177,36.088a1.282,1.282,0,0,1-1.283-1.283V13.229c-10.779-2.918-15.4,1.972-16.389,3.238V27.554a1.283,1.283,0,0,1-2.566,0V15.685l.2-.312c.227-.362,5.712-8.782,20.411-4.337l.912.276V34.806a1.282,1.282,0,0,1-1.283,1.283" transform="translate(7.901 2.755)" fill="#fff"/>
      <path id="패스_11402" data-name="패스 11402" d="M29.221,35.125a1.261,1.261,0,0,1-.685-.2,1.278,1.278,0,0,1-.4-1.76c.227-.362,5.712-8.783,20.411-4.337a1.282,1.282,0,1,1-.741,2.455c-12.743-3.853-17.314,2.961-17.5,3.253a1.294,1.294,0,0,1-1.084.589" transform="translate(7.901 7.786)" fill="#fff"/>
      <path id="패스_11403" data-name="패스 11403" d="M41.549,35.579H21.568a1.283,1.283,0,1,1,0-2.566H41.549a1.283,1.283,0,1,1,0,2.566" transform="translate(5.736 9.335)" fill="#fff"/>
      <rect id="사각형_4013" data-name="사각형 4013" width="21.429" height="16.531" transform="translate(42.192 24.142)" fill="#e89400"/>
      <path id="패스_11404" data-name="패스 11404" d="M52.847,29.382H39.582a2.566,2.566,0,0,1,0-5.131H52.847a2.566,2.566,0,1,1,0,5.131" transform="translate(10.467 6.857)" fill="#f7f006"/>
    </g>
  </g>
</svg>
