<svg xmlns="http://www.w3.org/2000/svg" xmlns:xlink="http://www.w3.org/1999/xlink" width="64" height="64" viewBox="0 0 64 64">
  <defs>
    <clipPath id="clip-path">
      <rect id="사각형_4010" data-name="사각형 4010" width="64" height="64" fill="none"/>
    </clipPath>
  </defs>
  <g id="그룹_34574" data-name="그룹 34574" transform="translate(0 0)">
    <g id="그룹_34573" data-name="그룹 34573" transform="translate(0 0)" clip-path="url(#clip-path)">
      <path id="패스_11371" data-name="패스 11371" d="M64,32A32,32,0,1,1,32,0,32,32,0,0,1,64,32" transform="translate(0 0)" fill="#5918eb"/>
      <path id="패스_11372" data-name="패스 11372" d="M21.86,42.256H13.981V40.8H21.86Zm-3.935.428A4.476,4.476,0,0,1,19.62,43a2.693,2.693,0,0,1,1.154.861,2.172,2.172,0,0,1,0,2.555,2.653,2.653,0,0,1-1.154.861,4.419,4.419,0,0,1-1.694.3,4.491,4.491,0,0,1-1.707-.3,2.674,2.674,0,0,1-1.168-.864,2.145,2.145,0,0,1,0-2.549A2.714,2.714,0,0,1,16.219,43a4.549,4.549,0,0,1,1.707-.312m6.59,5.806v4.393H22.649V49.976H15.58V48.491Zm-6.59-4.409a2.265,2.265,0,0,0-.786.124,1.112,1.112,0,0,0-.518.358.906.906,0,0,0-.181.57.885.885,0,0,0,.181.564,1.094,1.094,0,0,0,.518.346,2.429,2.429,0,0,0,.786.116,2.35,2.35,0,0,0,.784-.119,1.171,1.171,0,0,0,.525-.348.846.846,0,0,0,.191-.559.872.872,0,0,0-.191-.57,1.179,1.179,0,0,0-.525-.358,2.245,2.245,0,0,0-.784-.124m.929-2.46H17V39.539h1.856Zm5.662,6.311H22.649V39.6h1.867ZM26.3,44.572H23.99V43.056H26.3Z" transform="translate(0.367 1.036)" fill="#fff"/>
      <path id="패스_11373" data-name="패스 11373" d="M37.584,46.892H25.477V45.4H37.584Zm-5.4-6.708a3.763,3.763,0,0,1-.66,2.124,5.107,5.107,0,0,1-1.884,1.633,8.311,8.311,0,0,1-2.891.868l-.68-1.454a8.008,8.008,0,0,0,2.45-.657,4.153,4.153,0,0,0,1.536-1.142,2.237,2.237,0,0,0,.521-1.372v-.448H32.18Zm-3.449,7.378v1.13H34.2v-1.13h1.851v5.167H26.89V47.562Zm0,3.7H34.2V50.1H28.731ZM32.49,40.183A2.173,2.173,0,0,0,33,41.542,4.193,4.193,0,0,0,34.54,42.7a7.627,7.627,0,0,0,2.436.655l-.655,1.454a8.245,8.245,0,0,1-2.908-.873A5.138,5.138,0,0,1,31.536,42.3a3.7,3.7,0,0,1-.644-2.119v-.448h1.6Z" transform="translate(0.668 1.042)" fill="#fff"/>
      <path id="패스_11374" data-name="패스 11374" d="M49.074,47.114H36.967v-1.49H49.074Zm-5.692-5.946a3.11,3.11,0,0,1-.617,1.854,4.5,4.5,0,0,1-1.795,1.386,8.738,8.738,0,0,1-2.849.709L37.5,43.658a8.169,8.169,0,0,0,2.325-.5,3.866,3.866,0,0,0,1.437-.907,1.6,1.6,0,0,0,.477-1.081v-.341h1.645Zm4.6.459H38.065v-1.47h9.916Zm-4.986,6.441a9.731,9.731,0,0,1,2.472.276,3.533,3.533,0,0,1,1.594.818,1.8,1.8,0,0,1,0,2.609,3.554,3.554,0,0,1-1.594.82,9.514,9.514,0,0,1-2.472.273,9.636,9.636,0,0,1-2.5-.273,3.56,3.56,0,0,1-1.6-.818,1.812,1.812,0,0,1,0-2.611,3.53,3.53,0,0,1,1.6-.818,9.854,9.854,0,0,1,2.5-.276m0,1.4a8.823,8.823,0,0,0-1.534.119,2.327,2.327,0,0,0-.915.329.636.636,0,0,0-.3.547.651.651,0,0,0,.3.549,2.247,2.247,0,0,0,.921.335,10.4,10.4,0,0,0,3.043,0,2.286,2.286,0,0,0,.926-.335.673.673,0,0,0,.317-.549.645.645,0,0,0-.315-.544,2.382,2.382,0,0,0-.923-.332,8.709,8.709,0,0,0-1.521-.119m.933-.876H42.087V46.241h1.841Zm.356-7.426a1.593,1.593,0,0,0,.464,1.089,3.779,3.779,0,0,0,1.437.9,8.432,8.432,0,0,0,2.375.5l-.651,1.459a8.891,8.891,0,0,1-2.861-.706,4.527,4.527,0,0,1-1.808-1.384,3.068,3.068,0,0,1-.616-1.86v-.341h1.66Z" transform="translate(0.969 1.053)" fill="#fff"/>
      <path id="패스_11375" data-name="패스 11375" d="M13.834,30.819a1.027,1.027,0,0,1-1.026-1.026V11l.729-.221c11.759-3.557,16.149,3.18,16.33,3.47a1.026,1.026,0,0,1-1.735,1.095c-.157-.24-3.65-5.414-13.271-2.81V29.793a1.027,1.027,0,0,1-1.026,1.026" transform="translate(0.336 0.255)" fill="#fff"/>
      <path id="패스_11376" data-name="패스 11376" d="M29,33.61a1.027,1.027,0,0,1-.867-.475c-.155-.24-3.823-5.679-14-2.6a1.026,1.026,0,1,1-.594-1.964c11.759-3.558,16.148,3.181,16.329,3.47A1.026,1.026,0,0,1,29,33.61" transform="translate(0.336 0.722)" fill="#fff"/>
      <path id="패스_11377" data-name="패스 11377" d="M44.13,30.819A1.027,1.027,0,0,1,43.1,29.793V12.532c-8.594-2.323-12.334,1.609-13.111,2.592v8.868a1.026,1.026,0,1,1-2.052,0V14.5l.157-.249c.182-.289,4.568-7.028,16.33-3.47l.729.221v18.8a1.027,1.027,0,0,1-1.026,1.026" transform="translate(0.732 0.255)" fill="#fff"/>
      <path id="패스_11378" data-name="패스 11378" d="M28.965,33.61a1.026,1.026,0,0,1-.868-1.572c.182-.288,4.568-7.027,16.329-3.47a1.026,1.026,0,1,1-.594,1.964c-10.273-3.107-13.962,2.539-14,2.6a1.026,1.026,0,0,1-.87.48" transform="translate(0.732 0.722)" fill="#fff"/>
      <path id="패스_11379" data-name="패스 11379" d="M37.3,35.065H21.311a1.026,1.026,0,0,1,0-2.052H37.3a1.026,1.026,0,0,1,0,2.052" transform="translate(0.532 0.865)" fill="#fff"/>
      <rect id="사각형_4009" data-name="사각형 4009" width="17.143" height="13.225" transform="translate(33.753 19.313)" fill="#5918eb"/>
      <path id="패스_11380" data-name="패스 11380" d="M41.356,31.77h0a2.053,2.053,0,0,1-1.451-.6l-5.549-5.55a2.052,2.052,0,0,1,2.9-2.9l4.1,4.1L50.6,17.57a2.052,2.052,0,1,1,2.9,2.9l-10.7,10.7a2.053,2.053,0,0,1-1.451.6" transform="translate(0.885 0.445)" fill="#f7f006"/>
    </g>
  </g>
</svg>
