<svg xmlns="http://www.w3.org/2000/svg" width="22" height="22" viewBox="0 0 22 22">
  <g id="그룹_34663" data-name="그룹 34663" transform="translate(-1765 -122)">
    <path id="합치기_60" data-name="합치기 60" d="M.512,21.7A1,1,0,0,1,.49,20.3L9.6,11.107.277,1.7A1,1,0,0,1,.3.3.977.977,0,0,1,1.689.279l9.327,9.4L20.311.311A.977.977,0,0,1,21.7.335a1,1,0,0,1,.023,1.4l-9.294,9.371,9.082,9.157a1,1,0,0,1-.023,1.4.978.978,0,0,1-1.39.022l-9.081-9.157L1.9,21.722A.941.941,0,0,1,1.229,22,1.01,1.01,0,0,1,.512,21.7Z" transform="translate(1765 122)" fill="#5a5a5a"/>
  </g>
</svg>
