<svg xmlns="http://www.w3.org/2000/svg" width="72" height="76" viewBox="0 0 72 76">
    <g transform="translate(.397 19.688)">
        <rect data-name="사각형 5763" width="2" height="18" rx="1" transform="translate(34.603 1.313)" style="fill:#ddd"/>
        <path data-name="패스 13333" d="M71.037 24.411 63.3 13.494l-.011-.013a.915.915 0 0 0-.081-.093c-.018-.019-.026-.029-.041-.042l-.034-.028-.057-.042c-.019-.013-.034-.025-.052-.036l-.042-.022c-.009 0-.017-.012-.026-.016L36 .088c-.015-.008-.031-.011-.047-.018a.887.887 0 0 0-.09-.033c-.028-.008-.056-.015-.085-.021L35.691 0a.89.89 0 0 0-.09 0h-.086c-.029 0-.06.008-.089.014a1.007 1.007 0 0 0-.174.053L35.2.088 8.247 13.2c-.01 0-.017.012-.026.016s-.029.014-.042.022l-.05.035-.058.042c-.019.014-.024.019-.035.029s-.027.028-.04.042-.036.037-.053.057l-.029.037-.011.012L.167 24.411a.911.911 0 0 0 .323 1.335l7.245 3.768V41.5c0 .019 0 .038.006.057a.9.9 0 0 0 .01.1c.005.029.013.057.021.085s.015.056.026.083a.793.793 0 0 0 .037.082c.013.026.026.051.041.076s.033.047.051.07a.814.814 0 0 0 .057.069.856.856 0 0 0 .064.06c.022.019.043.038.067.056a.892.892 0 0 0 .085.052c.017.009.031.022.049.03L35.2 55.428l.019.008.019.009.023.009c.023.009.046.018.07.025l.037.011.041.01h.043l.031.005a.925.925 0 0 0 .115.008.926.926 0 0 0 .116-.008l.03-.005h.043l.041-.01.037-.011a.652.652 0 0 0 .07-.025l.023-.009.019-.009.023-.008 26.958-13.114c.017-.008.032-.021.049-.03a.887.887 0 0 0 .084-.052.858.858 0 0 0 .067-.056.774.774 0 0 0 .121-.129c.018-.024.035-.046.05-.07s.028-.05.041-.076.026-.053.037-.082.018-.055.026-.083.015-.056.021-.085a.979.979 0 0 0 .01-.1c0-.019.006-.038.006-.057v-11.98l7.245-3.768a.911.911 0 0 0 .323-1.334M35.6 26.122l-15.574-7.578-9.3-4.523L35.6 1.919l24.875 12.1zM8.942 15.178l10.286 5 15.027 7.31-6.937 10.157-25.06-13.033zm18.253 24.456a.91.91 0 0 0 1.172-.294l6.325-9.258v23.071L9.556 40.925V30.461zm34.454 1.292L36.513 53.153V30.082l6.325 9.258a.91.91 0 0 0 1.172.294l17.638-9.173zm-17.762-3.28L36.95 27.492l25.313-12.314 6.685 9.435z" style="fill:#bebebe"/>
        <rect data-name="사각형 5766" width="2" height="13" rx="1" transform="translate(34.603 -18.688)" style="fill:#bebebe"/>
        <rect data-name="사각형 5764" width="2" height="11.014" rx="1" transform="rotate(-30 -15.133 -49.515)" style="fill:#bebebe"/>
        <rect data-name="사각형 5765" width="2" height="11.015" rx="1" transform="rotate(-150 20.606 -8.02)" style="fill:#bebebe"/>
        <path transform="translate(-.397 -19.688)" style="fill:none" d="M0 0h72v76H0z"/>
    </g>
</svg>
