<svg xmlns="http://www.w3.org/2000/svg" width="64" height="64.001" viewBox="0 0 64 64.001">
    <g transform="translate(0 .002)">
        <path data-name="패스 981" d="M64 32A32 32 0 1 1 32 0a32 32 0 0 1 32 32" transform="translate(0 -.002)" style="fill:#ffe572"/>
        <path data-name="패스 982" d="M13.951 13.951A13.967 13.967 0 0 1 0 0h4.593a9.369 9.369 0 0 0 9.358 9.358A9.369 9.369 0 0 0 23.309 0H27.9a13.967 13.967 0 0 1-13.949 13.951" transform="translate(18.049 37.732)" style="fill:#573917"/>
        <circle data-name="타원 1592" cx="4.5" cy="4.5" r="4.5" transform="translate(17 20.998)" style="fill:#573917"/>
        <circle data-name="타원 1593" cx="4.5" cy="4.5" r="4.5" transform="translate(38 20.998)" style="fill:#573917"/>
    </g>
</svg>
