<svg xmlns="http://www.w3.org/2000/svg" width="96" height="24" viewBox="0 0 96 24">
    <defs>
        <clipPath id="detbaoyjia">
            <path transform="translate(6195 9981)" style="fill:#c4c8d0" d="M0 0h96v24H0z"/>
        </clipPath>
        <clipPath id="lqd63v051b">
            <path data-name="사각형 9730" style="fill:none" d="M0 0h94v16H0z"/>
        </clipPath>
    </defs>
    <g data-name="그룹 43531" transform="translate(-6195 -9981)" style="clip-path:url(#detbaoyjia)">
        <path data-name="패스 87290" d="m80.068 0 5.271 14h4.008L84.183 0z" transform="translate(6154.277 9984)" style="fill:#fc861d"/>
        <path data-name="패스 87291" d="m95.982 0-5.164 14h4.007L100.1 0z" transform="translate(6148.81 9984)" style="fill:#e51f3f"/>
        <g data-name="그룹 43530">
            <g data-name="그룹 43529" style="clip-path:url(#lqd63v051b)" transform="translate(6195 9984)">
                <path data-name="패스 87292" d="M.17 19.111v-1.674h3c.19 0 .379-.008.569-.024a2.19 2.19 0 0 0 .521-.1 1.164 1.164 0 0 0 .389-.21.439.439 0 0 0 .151-.354.669.669 0 0 0-.454-.6 4.738 4.738 0 0 0-1.214-.345 9.22 9.22 0 0 1-1.071-.243 4.227 4.227 0 0 1-1.016-.434 2.444 2.444 0 0 1-.748-.693A1.746 1.746 0 0 1 0 13.4a2.039 2.039 0 0 1 .284-1.12 1.947 1.947 0 0 1 .816-.7 4.334 4.334 0 0 1 1.28-.362 12.035 12.035 0 0 1 1.677-.1h2.616v1.602h-2.54a5.858 5.858 0 0 0-1.375.137c-.373.09-.559.282-.559.571a.561.561 0 0 0 .17.411 1.344 1.344 0 0 0 .456.281 4.141 4.141 0 0 0 .663.2c.252.053.51.1.777.143a6.644 6.644 0 0 1 1.109.282 3.587 3.587 0 0 1 .9.459 2.136 2.136 0 0 1 .6.644 1.655 1.655 0 0 1 .219.854 1.861 1.861 0 0 1-.332 1.119 2.543 2.543 0 0 1-.873.749 4.259 4.259 0 0 1-1.232.419 7.873 7.873 0 0 1-1.432.129z" transform="translate(0 -5.936)" style="fill:#313333"/>
                <path data-name="패스 87293" d="M21.26 17.576h1.324v-6.3h1.987v7.894h-3.464c-2.625 0-4.351-.934-4.351-4.2v-3.689h1.971v3.573c0 1.95.936 2.722 2.534 2.722" transform="translate(-8.524 -6.028)" style="fill:#313333"/>
                <path data-name="패스 87294" d="m39.3 18.978-1.019-1.256a.28.28 0 0 1-.068-.306c.046-.087.165-.129.357-.129h1.44a2.057 2.057 0 0 0 .816-.169 2.011 2.011 0 0 0 .671-.468 2.321 2.321 0 0 0 .45-.7 2.3 2.3 0 0 0 .009-1.715 2 2 0 0 0-.45-.676 2.121 2.121 0 0 0-.68-.442 2.2 2.2 0 0 0-.848-.161h-2.43v9.072h-2.09V11.281h4.706a4.622 4.622 0 0 1 1.546.257 3.635 3.635 0 0 1 1.266.75 3.577 3.577 0 0 1 .85 1.2 3.9 3.9 0 0 1 .314 1.594 3.7 3.7 0 0 1-.332 1.57 3.922 3.922 0 0 1-.883 1.232 4.143 4.143 0 0 1-2.8 1.1z" transform="translate(-18.037 -6.028)" style="fill:#313333"/>
                <path data-name="패스 87295" d="M61.74 17.26c.261 0 .408.049.441.152s-.016.233-.152.394l-.849 1.029h-1.53a6.262 6.262 0 0 1-2.156-.329 4.01 4.01 0 0 1-1.478-.9 3.608 3.608 0 0 1-.857-1.321 4.476 4.476 0 0 1-.281-1.585 4.649 4.649 0 0 1 .254-1.538 3.622 3.622 0 0 1 2.022-2.174 4.242 4.242 0 0 1 1.733-.332 4.288 4.288 0 0 1 1.6.284 3.318 3.318 0 0 1 1.954 2.02 4.645 4.645 0 0 1 .263 1.593 2.15 2.15 0 0 1-.084.467 1.078 1.078 0 0 1-.222.4 1.174 1.174 0 0 1-.39.29 1.409 1.409 0 0 1-.6.111h-4.45a2.108 2.108 0 0 0 .783 1.031 2.807 2.807 0 0 0 1.647.4zm-2.854-4.976a2.071 2.071 0 0 0-.85.16 1.8 1.8 0 0 0-.611.443 2.114 2.114 0 0 0-.4.652 3.306 3.306 0 0 0-.2.79h3.551a.306.306 0 0 0 .254-.1.362.362 0 0 0 .085-.235 1.518 1.518 0 0 0-.136-.627 1.848 1.848 0 0 0-.373-.548 1.79 1.79 0 0 0-.578-.386 1.869 1.869 0 0 0-.747-.144" transform="translate(-27.916 -5.693)" style="fill:#313333"/>
                <path data-name="패스 87296" d="M72.567 14.549a3.334 3.334 0 0 1 .807-2.478 3.74 3.74 0 0 1 2.677-.79h.557v1.61h-.422a1.625 1.625 0 0 0-1.273.412 1.853 1.853 0 0 0-.358 1.247v4.62h-1.919c-.046 0-.069-.021-.069-.063z" transform="translate(-36.915 -6.028)" style="fill:#313333"/>
                <path data-name="사각형 9729" transform="translate(82.006 4.226)" style="fill:#313333" d="M0 0h1.824v9.707H0z"/>
                <path data-name="패스 87297" d="m109.415 20.8.006 1.495h2.026v2.826h1.825l-.005-2.826h1.776v2.826h1.789V22.3h1.368l.553-1.2a.215.215 0 0 0-.206-.3z" transform="translate(-55.659 -11.115)" style="fill:#313333"/>
                <path data-name="패스 87298" d="m114.285 11.963.118-.09 3.422 2.065.857-1.318-3.47-1.966.018-.131a2.56 2.56 0 0 0 .028-.4V9.1H113.3v.707a1.051 1.051 0 0 1-.09.554 1.62 1.62 0 0 1-.453.466 23.452 23.452 0 0 1-2.884 1.665l1.129 1.5a26.933 26.933 0 0 0 3.288-2.024" transform="translate(-55.89 -4.862)" style="fill:#313333"/>
                <path data-name="패스 87299" d="M136.511 11.6h.945v-1.452h-6.326v1.451h.821v4.552h-.793v1.451h6.049l.607-1.146a.211.211 0 0 0-.2-.3h-1.106zm-1.667 4.552H133.7l-.01-4.552h1.158z" transform="translate(-66.706 -5.424)" style="fill:#313333"/>
                <path data-name="패스 87300" d="M144.826 9.076v3.328h-1.317v1.569h1.316v4.81h1.824V9.076z" transform="translate(-73.005 -4.85)" style="fill:#313333"/>
                <path data-name="패스 87301" d="M159.355 16.094H154.9a.121.121 0 0 1-.124-.117v-1.449a.121.121 0 0 1 .124-.118h2.74a.638.638 0 0 0 .492-.18.683.683 0 0 0 .168-.481v-3.617a.121.121 0 0 0-.124-.117h-5.12a.12.12 0 0 0-.124.118l.005 1.26a.121.121 0 0 0 .124.117h3.275a.12.12 0 0 1 .124.117v1.257a.121.121 0 0 1-.124.117h-3.285a.121.121 0 0 0-.124.117v3.583a.9.9 0 0 0 .027.236.821.821 0 0 0 .306.469.876.876 0 0 0 .55.183h5.106l.674-1.126a.248.248 0 0 0-.227-.369" transform="translate(-77.79 -5.352)" style="fill:#313333"/>
                <path data-name="패스 87302" d="M189.3 14.3V9.072h-1.78v5.231z" transform="translate(-95.39 -4.85)" style="fill:#313333"/>
                <path data-name="패스 87303" d="M175.693 12.783v-1.746h3.625V9.648h-5.425v3.5a1.323 1.323 0 0 0 .036.275.956.956 0 0 0 .348.545 1.013 1.013 0 0 0 .633.2h4.652l.664-1.094a.2.2 0 0 0-.18-.294z" transform="translate(-88.457 -5.155)" style="fill:#313333"/>
                <path data-name="패스 87304" d="M183.392 22.619a1.556 1.556 0 0 0-.676-.966 2.625 2.625 0 0 0-1.444-.346h-3.3a2.691 2.691 0 0 0-1.607.378 1.368 1.368 0 0 0-.462 1.188l.021.778a2.574 2.574 0 0 0 .069.546 1.552 1.552 0 0 0 .67.963 2.631 2.631 0 0 0 1.438.34h3.3a2.669 2.669 0 0 0 1.614-.384 1.377 1.377 0 0 0 .466-1.184l-.022-.777a2.574 2.574 0 0 0-.066-.536m-1.738 1.45h-3.916v-1.332h3.916z" transform="translate(-89.48 -11.385)" style="fill:#313333"/>
            </g>
        </g>
    </g>
</svg>
