<svg xmlns="http://www.w3.org/2000/svg" xmlns:xlink="http://www.w3.org/1999/xlink" width="102" height="102" viewBox="0 0 102 102">
  <defs>
    <style>
      .cls-1 {
        fill: #f3a421;
        opacity: 0.548;
      }

      .cls-2 {
        clip-path: url(#clip-path);
      }

      .cls-3 {
        fill: #f3a421;
      }

      .cls-4 {
        fill: #fff;
      }

      .cls-5 {
        filter: url(#다각형_2);
      }
    </style>
    <clipPath id="clip-path">
      <rect id="G" class="cls-1" width="102" height="102" transform="translate(687 145)"/>
    </clipPath>
    <filter id="다각형_2">
    </filter>
  </defs>
  <g id="Jam_arr_r" class="cls-2" transform="translate(-687 -145)">
    <g data-type="innerShadowGroup">
      <path id="다각형_2-2" data-name="다각형 2" class="cls-3" d="M27.086,4.924a5,5,0,0,1,7.828,0L55.553,30.889A5,5,0,0,1,51.639,39H10.361a5,5,0,0,1-3.914-8.111Z" transform="translate(758 164) rotate(90)"/>
      <g class="cls-5" transform="matrix(1, 0, 0, 1, 687, 145)">
        <path id="다각형_2-3" data-name="다각형 2" class="cls-4" d="M27.086,4.924a5,5,0,0,1,7.828,0L55.553,30.889A5,5,0,0,1,51.639,39H10.361a5,5,0,0,1-3.914-8.111Z" transform="translate(71 19) rotate(90)"/>
      </g>
    </g>
  </g>
</svg>
