<svg xmlns="http://www.w3.org/2000/svg" width="26" height="26" viewBox="0 0 26 26">
  <g id="그룹_34662" data-name="그룹 34662" transform="translate(-460 -3530)">
    <circle id="타원_1199" data-name="타원 1199" cx="13" cy="13" r="13" transform="translate(460 3530)" fill="#b7b7b7"/>
    <path id="패스_11430" data-name="패스 11430" d="M1.87-14.322a2.942,2.942,0,0,0-.308,1.386v7.37c0,.55-.022,1.1,0,1.606a5.087,5.087,0,0,0,.154,1.034c.4.946,2.508,1.012,2.9.022A4.956,4.956,0,0,0,4.774-4.62v-6.49c0-.946.33-3.366-.9-3.7a4.156,4.156,0,0,0-.924-.066A1.314,1.314,0,0,0,1.87-14.322ZM4.4-.176A1.979,1.979,0,0,0,2.882-.528,1,1,0,0,0,1.848.044a2.272,2.272,0,0,0,.022,1.43c.286.77,1.518.88,2.156.616A1.468,1.468,0,0,0,4.62.264,1.376,1.376,0,0,0,4.4-.176Z" transform="translate(469.449 3548.872)" fill="#fff"/>
  </g>
</svg>
