<svg xmlns="http://www.w3.org/2000/svg" width="169.997" height="96.002" viewBox="0 0 169.997 96.002">
    <defs>
        <clipPath id="nnwxwt6ccb">
            <path transform="translate(703 554)" style="fill:none" d="M0 0h40v32H0z"/>
        </clipPath>
        <filter id="33ews2je7a">
            <feOffset dy="-2"/>
            <feGaussianBlur result="blur"/>
            <feFlood flood-color="#a8d0ff" result="color"/>
            <feComposite operator="out" in="SourceGraphic" in2="blur"/>
            <feComposite operator="in" in="color"/>
            <feComposite operator="in" in2="SourceGraphic"/>
        </filter>
    </defs>
    <g data-type="innerShadowGroup">
        <path data-name="bubble" d="M9797 23131h15l-7.5 8zm-62 0a16 16 0 0 1-16-16v-38a16 16 0 0 1 16-16h138a16 16 0 0 1 16 16v38a16 16 0 0 1-16 16z" transform="translate(-9719.003 -23043)" style="fill:#fff"/>
        <g style="filter:url(#33ews2je7a)">
            <path data-name="bubble" d="M9797 23131h15l-7.5 8zm-62 0a16 16 0 0 1-16-16v-38a16 16 0 0 1 16-16h138a16 16 0 0 1 16 16v38a16 16 0 0 1-16 16z" transform="translate(-9719 -23043)" style="fill:#fff"/>
        </g>
    </g>
    <g style="clip-path:url(#nnwxwt6ccb)">
        <path data-name="v" d="m9728.19 23080.8-9.189-9.189 5.655-5.656 9.191 9.189 17.681-17.678 5.655 5.656-23.333 23.338z" transform="translate(-9653.001 -23056.336)" style="fill:#005fce"/>
    </g>
</svg>
